<?xml version="1.0" standalone="no"?>
<!DOCTYPE svg PUBLIC "-//W3C//DTD SVG 20010904//EN"
 "http://www.w3.org/TR/2001/REC-SVG-20010904/DTD/svg10.dtd">
<svg version="1.0" xmlns="http://www.w3.org/2000/svg"
 width="129.000000pt" height="129.000000pt" viewBox="0 0 129.000000 129.000000"
 preserveAspectRatio="xMidYMid meet">
<metadata>
Created by potrace 1.14, written by Peter Selinger 2001-2017
</metadata>
<g transform="translate(0.000000,129.000000) scale(0.100000,-0.100000)"
fill="#000000" stroke="none">
<path d="M280 1062 c-192 -96 -215 -110 -218 -133 -2 -18 21 -73 67 -161 l70
-135 -26 -80 c-14 -44 -24 -87 -21 -95 4 -8 42 -30 86 -47 l80 -32 57 -142
c32 -78 64 -152 72 -164 17 -28 27 -29 284 -6 l197 17 44 -24 c51 -27 89 -23
112 13 12 18 13 39 4 128 l-11 105 56 99 c32 55 57 106 57 115 0 9 -32 47 -71
85 l-71 70 4 172 c4 150 3 175 -11 187 -12 11 -73 20 -211 31 l-195 16 -45 45
c-30 29 -54 44 -70 43 -14 0 -122 -48 -240 -107z"/>
</g>
</svg>
